<svg width="17" height="10" viewBox="0 0 17 10" fill="none" xmlns="http://www.w3.org/2000/svg">
<path d="M1.02347 1.71398C0.629149 1.3273 0.62296 0.694161 1.00965 0.299838C1.39634 -0.0944843 2.02947 -0.100673 2.42379 0.286016L1.02347 1.71398ZM8.86183 8L9.56199 8.71398L8.86183 9.40059L8.16167 8.71398L8.86183 8ZM15.2999 0.286016C15.6942 -0.100673 16.3273 -0.0944843 16.714 0.299838C17.1007 0.694161 17.0945 1.3273 16.7002 1.71398L15.2999 0.286016ZM2.42379 0.286016L9.56199 7.28602L8.16167 8.71398L1.02347 1.71398L2.42379 0.286016ZM8.16167 7.28602L15.2999 0.286016L16.7002 1.71398L9.56199 8.71398L8.16167 7.28602Z" fill="#3E2E4D"/>
</svg>
