<svg width="17" height="10" viewBox="0 0 17 10" fill="none" xmlns="http://www.w3.org/2000/svg">
<path d="M1.02347 7.78602C0.629149 8.1727 0.62296 8.80584 1.00965 9.20016C1.39634 9.59448 2.02947 9.60067 2.42379 9.21398L1.02347 7.78602ZM8.86183 1.5L9.56199 0.786016L8.86183 0.0994093L8.16167 0.786016L8.86183 1.5ZM15.2999 9.21398C15.6942 9.60067 16.3273 9.59448 16.714 9.20016C17.1007 8.80584 17.0945 8.1727 16.7002 7.78602L15.2999 9.21398ZM2.42379 9.21398L9.56199 2.21398L8.16167 0.786016L1.02347 7.78602L2.42379 9.21398ZM8.16167 2.21398L15.2999 9.21398L16.7002 7.78602L9.56199 0.786016L8.16167 2.21398Z" fill="#BCB7C2"/>
</svg>
