<svg width="55" height="40" viewBox="0 0 55 40" fill="none" xmlns="http://www.w3.org/2000/svg">
<path d="M31.7127 6.34919C31.7146 5.56763 31.4881 4.80307 31.0617 4.15228C30.6354 3.50149 30.0284 2.99375 29.3176 2.69332C28.6068 2.39288 27.8241 2.31328 27.0688 2.46457C26.3134 2.61586 25.6192 2.99126 25.0741 3.54323C24.529 4.0952 24.1575 4.79893 24.0066 5.56533C23.8557 6.33174 23.9322 7.12635 24.2265 7.84859C24.5207 8.57082 25.0194 9.1882 25.6595 9.62258C26.2996 10.057 27.0523 10.2888 27.8222 10.2887C28.8524 10.2888 29.8406 9.87408 30.57 9.13553C31.2993 8.39698 31.7103 7.39492 31.7127 6.34919ZM27.8222 9.12511C27.2818 9.12319 26.754 8.95877 26.3056 8.6526C25.8571 8.34643 25.5081 7.91224 25.3026 7.40487C25.0971 6.89749 25.0443 6.33968 25.1509 5.80186C25.2575 5.26405 25.5186 4.77035 25.9015 4.38311C26.2843 3.99587 26.7715 3.73246 27.3017 3.62612C27.8319 3.51979 28.3813 3.57531 28.8804 3.78567C29.3795 3.99603 29.806 4.35181 30.1061 4.80806C30.4062 5.26432 30.5663 5.8006 30.5664 6.34919C30.5643 7.08641 30.2742 7.7927 29.7597 8.3131C29.2453 8.8335 28.5485 9.12552 27.8222 9.12511Z" fill="#332208"/>
<path d="M15.1733 16.1068C14.6423 16.1081 14.1235 16.2691 13.6825 16.5695C13.2416 16.8699 12.8982 17.2963 12.6958 17.7947C12.4935 18.2931 12.4412 18.8412 12.5456 19.3697C12.6499 19.8983 12.9063 20.3836 13.2823 20.7643C13.6582 21.145 14.1369 21.4041 14.6579 21.5088C15.1788 21.6135 15.7187 21.5591 16.2092 21.3525C16.6997 21.1459 17.1189 20.7964 17.4138 20.3481C17.7087 19.8997 17.8661 19.3728 17.8661 18.8337C17.8644 18.1099 17.58 17.4163 17.0752 16.9051C16.5704 16.3939 15.8864 16.1068 15.1733 16.1068ZM15.1733 20.397C14.869 20.3958 14.5718 20.303 14.3194 20.1304C14.067 19.9579 13.8705 19.7133 13.7549 19.4275C13.6393 19.1418 13.6097 18.8276 13.6699 18.5248C13.73 18.222 13.8772 17.944 14.0928 17.726C14.3085 17.508 14.5829 17.3598 14.8815 17.3C15.1801 17.2401 15.4894 17.2715 15.7704 17.39C16.0515 17.5085 16.2917 17.7089 16.4606 17.9658C16.6296 18.2228 16.7197 18.5248 16.7197 18.8337C16.7185 19.2491 16.555 19.647 16.2651 19.9402C15.9752 20.2333 15.5825 20.3978 15.1733 20.3974V20.397Z" fill="#332208"/>
<path d="M32.1848 21.1765C31.7297 21.1776 31.2851 21.3155 30.9071 21.5729C30.5292 21.8304 30.2349 22.1957 30.0615 22.6228C29.888 23.0499 29.8431 23.5196 29.9326 23.9726C30.022 24.4256 30.2417 24.8415 30.5638 25.1678C30.886 25.4941 31.2962 25.7162 31.7427 25.8059C32.1891 25.8956 32.6518 25.8491 33.0722 25.672C33.4925 25.495 33.8518 25.1955 34.1045 24.8113C34.3573 24.4271 34.4922 23.9755 34.4922 23.5135C34.4908 22.8932 34.2471 22.2988 33.8145 21.8607C33.382 21.4226 32.7958 21.1765 32.1848 21.1765ZM32.1848 24.6868C31.9564 24.6858 31.7334 24.6161 31.544 24.4865C31.3546 24.357 31.2072 24.1734 31.1206 23.9589C31.0339 23.7444 31.0117 23.5086 31.0569 23.2814C31.1021 23.0541 31.2126 22.8456 31.3744 22.682C31.5363 22.5184 31.7422 22.4072 31.9663 22.3623C32.1904 22.3175 32.4225 22.341 32.6335 22.43C32.8444 22.5189 33.0246 22.6693 33.1514 22.8622C33.2782 23.055 33.3458 23.2816 33.3458 23.5135C33.3448 23.8252 33.2219 24.1238 33.0043 24.3438C32.7866 24.5637 32.4919 24.687 32.1848 24.6867V24.6868Z" fill="#332208"/>
<path d="M44.4419 13.2186C44.897 13.2176 45.3416 13.0797 45.7196 12.8223C46.0975 12.5648 46.3918 12.1995 46.5652 11.7724C46.7387 11.3453 46.7835 10.8756 46.6941 10.4226C46.6047 9.96961 46.385 9.5537 46.0629 9.2274C45.7407 8.90109 45.3305 8.67904 44.884 8.58929C44.4376 8.49954 43.9749 8.54613 43.5545 8.72316C43.1342 8.90019 42.7749 9.19972 42.5222 9.58392C42.2694 9.96811 42.1345 10.4197 42.1345 10.8817C42.1359 11.502 42.3796 12.0964 42.8122 12.5345C43.2447 12.9726 43.8309 13.2187 44.4419 13.2186ZM44.4419 9.70839C44.6703 9.70942 44.8933 9.77911 45.0827 9.90867C45.2721 10.0382 45.4194 10.2218 45.5061 10.4363C45.5928 10.6508 45.615 10.8865 45.5698 11.1138C45.5246 11.3411 45.4141 11.5496 45.2523 11.7132C45.0904 11.8768 44.8845 11.988 44.6604 12.0328C44.4363 12.0777 44.2041 12.0542 43.9932 11.9652C43.7823 11.8762 43.6021 11.7259 43.4753 11.533C43.3485 11.3402 43.2809 11.1135 43.2809 10.8817C43.2819 10.5699 43.4047 10.2713 43.6224 10.0514C43.84 9.83139 44.1348 9.70805 44.4419 9.70839Z" fill="#332208"/>
<g filter="url(#filter0_d)">
<path d="M46.1129 15.4714L47.6246 13.4262C48.2069 12.6544 48.4965 11.696 48.4406 10.7256C48.3045 8.60818 46.596 6.94934 44.5509 6.94934C42.5058 6.94934 40.7976 8.60818 40.6612 10.7251C40.6316 11.2058 40.6905 11.6878 40.8349 12.1466L31.381 12.3226L32.8401 10.3476C33.7713 9.11485 34.2348 7.58333 34.1461 6.0325C34.0457 4.44611 33.3814 2.95066 32.2765 1.82407C31.7073 1.2458 31.0314 0.787061 30.2874 0.474078C29.5434 0.161095 28.746 0 27.9406 0C27.1353 0 26.3378 0.161095 25.5939 0.474078C24.8499 0.787061 24.174 1.2458 23.6047 1.82407C22.5001 2.95039 21.8357 4.44548 21.7352 6.03153C21.6378 7.5104 22.1 9.04085 23.0407 10.3466L24.3029 12.0542L10.8685 12.144C10.7496 12.1448 10.6339 12.1831 10.5374 12.2537C10.4409 12.3242 10.3683 12.4234 10.3299 12.5376L4.03082 31.23C4.00132 31.3176 3.99283 31.411 4.00607 31.5026C4.0193 31.5942 4.05387 31.6813 4.1069 31.7566C4.15993 31.8319 4.2299 31.8932 4.31099 31.9356C4.39208 31.9779 4.48195 32 4.57314 32H50.4269C50.5168 32 50.6054 31.9785 50.6857 31.9373C50.7659 31.8961 50.8354 31.8363 50.8887 31.7627C50.9419 31.6892 50.9774 31.604 50.9922 31.5139C51.007 31.4239 51.0007 31.3316 50.9739 31.2445L46.1129 15.4714ZM41.8046 10.8014C41.8895 9.47993 42.9397 8.11296 44.5504 8.11296C46.1611 8.11296 47.2113 9.48022 47.2963 10.803C47.3339 11.4953 47.125 12.1783 46.7077 12.7272L44.5504 15.646L42.3973 12.733C41.9831 12.1794 41.7735 11.4958 41.805 10.8014H41.8046ZM41.3899 13.2996C41.4185 13.3419 41.4472 13.384 41.4768 13.4257L44.0925 16.965C44.1459 17.0373 44.2151 17.0959 44.2947 17.1363C44.3743 17.1767 44.462 17.1978 44.551 17.1978C44.64 17.1978 44.7277 17.1767 44.8073 17.1363C44.8869 17.0959 44.9562 17.0373 45.0095 16.965L45.2655 16.6188L45.9171 18.7334L37.03 18.7355L36.3861 13.3934L41.3899 13.2996ZM23.9623 9.65447C23.1845 8.57492 22.7999 7.31588 22.8795 6.10862C22.9618 4.8035 23.5081 3.57309 24.4168 2.64607C24.8796 2.1762 25.429 1.80348 26.0337 1.54918C26.6384 1.29488 27.2865 1.164 27.941 1.164C28.5955 1.164 29.2437 1.29488 29.8484 1.54918C30.453 1.80348 31.0025 2.1762 31.4652 2.64607C32.3745 3.57349 32.921 4.80452 33.0032 6.11027C33.0733 7.383 32.6902 8.63888 31.9239 9.64875L27.9411 15.0374L23.9623 9.65447ZM5.375 30.8364L8.35263 22.0001L11.7428 21.9896L14.848 26.1909C14.9014 26.2632 14.9706 26.3218 15.0502 26.3622C15.1298 26.4026 15.2176 26.4236 15.3065 26.4236C15.3955 26.4236 15.4833 26.4026 15.5629 26.3622C15.6425 26.3218 15.7117 26.2632 15.7651 26.1909L18.2393 22.843L18.2697 30.8364H5.375ZM18.045 21.1673L15.3064 24.8722L12.5721 21.173C12.0346 20.4263 11.7685 19.5585 11.8234 18.7275C11.9309 17.0529 13.2633 15.3207 15.3064 15.3207C17.3496 15.3207 18.6819 17.0529 18.7897 18.7292C18.8376 19.6062 18.5733 20.4715 18.045 21.1673ZM27.0786 24.7371C27.0245 24.7912 26.9815 24.8557 26.9522 24.9269C26.9229 24.9981 26.9078 25.0745 26.9078 25.1516L26.9109 30.8364H19.4161L19.3801 21.1988C19.7959 20.4191 19.9878 19.5367 19.9341 18.6518C19.7722 16.1315 17.7398 14.1571 15.3071 14.1571C12.8745 14.1571 10.8421 16.1315 10.6802 18.6508C10.6366 19.3974 10.769 20.1438 11.0662 20.8281L8.74583 20.8352L11.2834 13.3049L25.1597 13.2125L27.4832 16.3561C27.5366 16.4283 27.6058 16.487 27.6854 16.5274C27.765 16.5678 27.8527 16.5888 27.9417 16.5888C28.0307 16.5888 28.1185 16.5678 28.1981 16.5274C28.2776 16.487 28.3469 16.4283 28.4003 16.3561L30.5092 13.5022L35.2339 13.4142L35.9538 19.3875C35.9708 19.5285 36.0381 19.6583 36.1429 19.7525C36.2477 19.8467 36.3828 19.8986 36.5228 19.8986L46.2757 19.8964L47.7139 24.5632L36.0704 24.5833C36.1722 24.1834 36.2105 23.7695 36.1837 23.3574C36.0476 21.2398 34.339 19.581 32.2939 19.581C30.2488 19.581 28.5402 21.2398 28.4042 23.3564C28.3783 23.7699 28.4184 24.1849 28.523 24.5853L27.4896 24.5697C27.4135 24.5676 27.3377 24.5814 27.267 24.6102C27.1963 24.6389 27.1322 24.6821 27.0786 24.7371ZM34.451 25.3589L32.2938 28.2777L30.1408 25.3648C29.7264 24.8113 29.5166 24.1278 29.5479 23.4333C29.6329 22.1117 30.6832 20.7449 32.2938 20.7449C33.9044 20.7449 34.9548 22.1121 35.0398 23.435C35.0772 24.1272 34.8682 24.8101 34.451 25.359V25.3589ZM28.0572 30.8364L28.0545 25.7419L29.0205 25.7565C29.0826 25.8586 29.149 25.9588 29.2196 26.0571L31.8353 29.5964C31.8887 29.6687 31.9579 29.7273 32.0375 29.7677C32.1171 29.8081 32.2048 29.8292 32.2938 29.8292C32.3828 29.8292 32.4706 29.8081 32.5502 29.7677C32.6297 29.7273 32.699 29.6687 32.7524 29.5964L35.3676 26.0582C35.4424 25.9573 35.5122 25.8539 35.5771 25.7479L48.0723 25.7263L49.647 30.8364H28.0572Z" fill="#332208"/>
</g>
<defs>
<filter id="filter0_d" x="0" y="0" width="55" height="40" filterUnits="userSpaceOnUse" color-interpolation-filters="sRGB">
<feFlood flood-opacity="0" result="BackgroundImageFix"/>
<feColorMatrix in="SourceAlpha" type="matrix" values="0 0 0 0 0 0 0 0 0 0 0 0 0 0 0 0 0 0 127 0" result="hardAlpha"/>
<feOffset dy="4"/>
<feGaussianBlur stdDeviation="2"/>
<feComposite in2="hardAlpha" operator="out"/>
<feColorMatrix type="matrix" values="0 0 0 0 0 0 0 0 0 0 0 0 0 0 0 0 0 0 0.25 0"/>
<feBlend mode="normal" in2="BackgroundImageFix" result="effect1_dropShadow"/>
<feBlend mode="normal" in="SourceGraphic" in2="effect1_dropShadow" result="shape"/>
</filter>
</defs>
</svg>
